<svg width="63" height="63" viewBox="0 0 63 63" fill="none" xmlns="http://www.w3.org/2000/svg">
<circle cx="31.4297" cy="31.4297" r="31.4297" fill="#0A042C"/>
<path d="M20.34 35.24C19.9667 35.5333 19.52 35.7667 19 35.94C18.48 36.1133 17.96 36.2 17.44 36.2C16.5333 36.2 15.74 36.02 15.06 35.66C14.38 35.3 13.8467 34.8 13.46 34.16C13.0867 33.5067 12.9 32.74 12.9 31.86C12.9 30.98 13.1 30.2133 13.5 29.56C13.9133 28.9067 14.4467 28.4067 15.1 28.06C15.7667 27.7 16.48 27.52 17.24 27.52C17.9067 27.52 18.5 27.6133 19.02 27.8C19.5533 27.9867 20.0067 28.24 20.38 28.56L19.46 29.76C19.22 29.5733 18.9267 29.4067 18.58 29.26C18.2333 29.1133 17.84 29.04 17.4 29.04C16.92 29.04 16.4733 29.1667 16.06 29.42C15.66 29.66 15.34 29.9933 15.1 30.42C14.8733 30.8467 14.76 31.3267 14.76 31.86C14.76 32.3667 14.88 32.84 15.12 33.28C15.36 33.7067 15.6933 34.0467 16.12 34.3C16.5467 34.54 17.0333 34.66 17.58 34.66C17.94 34.66 18.2667 34.6067 18.56 34.5C18.8667 34.3933 19.14 34.2467 19.38 34.06L20.34 35.24ZM23.1411 20.52H25.0011V36H23.1411V20.52ZM28.6192 27.72H30.4792V36H28.6192V27.72ZM28.4792 24.72C28.4792 24.4267 28.5926 24.18 28.8192 23.98C29.0592 23.78 29.3192 23.68 29.5992 23.68C29.8792 23.68 30.1259 23.78 30.3392 23.98C30.5659 24.18 30.6792 24.4267 30.6792 24.72C30.6792 25.0267 30.5659 25.28 30.3392 25.48C30.1259 25.6667 29.8792 25.76 29.5992 25.76C29.3192 25.76 29.0592 25.66 28.8192 25.46C28.5926 25.26 28.4792 25.0133 28.4792 24.72ZM40.8173 35.24C40.444 35.5333 39.9973 35.7667 39.4773 35.94C38.9573 36.1133 38.4373 36.2 37.9173 36.2C37.0107 36.2 36.2173 36.02 35.5373 35.66C34.8573 35.3 34.324 34.8 33.9373 34.16C33.564 33.5067 33.3773 32.74 33.3773 31.86C33.3773 30.98 33.5773 30.2133 33.9773 29.56C34.3907 28.9067 34.924 28.4067 35.5773 28.06C36.244 27.7 36.9573 27.52 37.7173 27.52C38.384 27.52 38.9773 27.6133 39.4973 27.8C40.0307 27.9867 40.484 28.24 40.8573 28.56L39.9373 29.76C39.6973 29.5733 39.404 29.4067 39.0573 29.26C38.7107 29.1133 38.3173 29.04 37.8773 29.04C37.3973 29.04 36.9507 29.1667 36.5373 29.42C36.1373 29.66 35.8173 29.9933 35.5773 30.42C35.3507 30.8467 35.2373 31.3267 35.2373 31.86C35.2373 32.3667 35.3573 32.84 35.5973 33.28C35.8373 33.7067 36.1707 34.0467 36.5973 34.3C37.024 34.54 37.5107 34.66 38.0573 34.66C38.4173 34.66 38.744 34.6067 39.0373 34.5C39.344 34.3933 39.6173 34.2467 39.8573 34.06L40.8173 35.24ZM43.6184 36V20.52H45.4784V36H43.6184ZM47.4784 30.5L51.2784 36H49.0984L46.2384 31.54L47.4784 30.5ZM44.8984 33.36L44.7184 31.58L49.7384 27.54L50.8784 28.52L44.8984 33.36Z" fill="white"/>
</svg>
