<svg width="63" height="63" viewBox="0 0 63 63" fill="none" xmlns="http://www.w3.org/2000/svg">
<circle cx="31.4297" cy="31.4297" r="31.4297" fill="#0A042C"/>
<path d="M18.2939 37.234C15.6659 37.234 13.9019 35.29 13.9019 32.41C13.9019 29.548 15.6659 27.604 18.2939 27.604C20.5259 27.604 22.0379 29.098 22.2359 31.042H21.0119C20.9399 30.016 20.2019 28.63 18.2939 28.63C16.0439 28.63 15.1259 30.538 15.1259 32.41C15.1259 34.3 16.0439 36.226 18.2939 36.226C20.2199 36.226 20.9399 34.84 21.0119 33.724H22.2359C22.1099 35.704 20.5259 37.234 18.2939 37.234ZM25.3402 37H24.1702V24.13H25.3402V37ZM29.1845 25.984H27.6725V24.472H29.1845V25.984ZM29.0225 37H27.8525V27.82H29.0225V37ZM35.4227 37.234C32.7947 37.234 31.0307 35.29 31.0307 32.41C31.0307 29.548 32.7947 27.604 35.4227 27.604C37.6547 27.604 39.1667 29.098 39.3647 31.042H38.1407C38.0687 30.016 37.3307 28.63 35.4227 28.63C33.1727 28.63 32.2547 30.538 32.2547 32.41C32.2547 34.3 33.1727 36.226 35.4227 36.226C37.3487 36.226 38.0687 34.84 38.1407 33.724H39.3647C39.2387 35.704 37.6547 37.234 35.4227 37.234ZM48.913 37H47.527L44.053 31.924L42.469 33.4V37H41.299V24.13H42.469V32.14L47.023 27.82H48.463L44.845 31.186L48.913 37Z" fill="white"/>
</svg>
