<svg width="62" height="50" viewBox="0 0 62 50" fill="none" xmlns="http://www.w3.org/2000/svg">
<path d="M32.5479 45.2575C32.7286 45.2575 32.8415 45.3704 32.8867 45.5962C32.977 45.822 32.9544 45.9801 32.8189 46.0705L25.3663 49.5935C25.0953 49.6838 24.9147 49.729 24.8243 49.729C24.2371 49.729 23.7403 49.2322 23.3338 48.2385C22.9273 47.2448 22.7015 45.8672 22.6563 44.1057C20.9851 45.8672 19.2236 47.29 17.3717 48.374C15.5651 49.458 13.5325 50 11.2742 50C9.37716 50 7.61565 49.458 5.98963 48.374C4.40878 47.29 3.12152 45.7769 2.12784 43.8347C1.17933 41.8473 0.705078 39.589 0.705078 37.0596C0.705078 33.8528 1.4955 31.1201 3.07635 28.8618C4.6572 26.6034 6.64455 24.9097 9.03841 23.7805C11.4323 22.6513 13.8035 22.0867 16.1522 22.0867C18.5461 22.0867 20.7141 22.6739 22.6563 23.8482V8.67209C22.6563 7.04607 22.4756 5.87173 22.1143 5.14905C21.7981 4.42638 21.2335 4.06504 20.4205 4.06504C19.8334 4.06504 18.7945 4.38121 17.304 5.01355H17.1685C16.9878 5.01355 16.8523 4.92322 16.762 4.74255C16.7168 4.51671 16.762 4.35863 16.8975 4.26829L25.5018 0.0677498C25.5922 0.0225833 25.7051 0 25.8406 0C25.9309 0 26.0438 0.0677498 26.1793 0.203249C26.36 0.293585 26.4503 0.406504 26.4503 0.542006V41.6667C26.4503 43.2927 26.631 44.467 26.9923 45.1897C27.3988 45.9124 28.0312 46.2737 28.8894 46.2737C30.1992 46.2737 31.3736 45.9575 32.4124 45.3252L32.5479 45.2575ZM13.9165 47.561C15.5425 47.561 17.0556 47.1771 18.4558 46.4092C19.8559 45.5962 21.2561 44.467 22.6563 43.0217V28.1165C21.5723 26.626 20.3754 25.4743 19.0655 24.6612C17.7557 23.8482 16.1748 23.4417 14.323 23.4417C11.4774 23.4417 9.21908 24.458 7.5479 26.4905C5.92188 28.4779 5.10887 31.3234 5.10887 35.0271C5.10887 37.5113 5.49279 39.7019 6.26063 41.5989C7.02847 43.4959 8.06732 44.9639 9.37716 46.0027C10.7322 47.0416 12.2453 47.561 13.9165 47.561Z" fill="white"/>
<path d="M42.2172 14.4309C41.2687 14.4309 40.5234 14.1825 39.9814 13.6856C39.4846 13.1888 39.2362 12.4887 39.2362 11.5854C39.2362 10.682 39.4846 9.98193 39.9814 9.48509C40.5234 8.98826 41.2687 8.73984 42.2172 8.73984C43.1205 8.73984 43.8206 8.98826 44.3175 9.48509C44.8143 9.98193 45.0627 10.682 45.0627 11.5854C45.0627 12.4887 44.8143 13.1888 44.3175 13.6856C43.8206 14.1825 43.1205 14.4309 42.2172 14.4309ZM36.5261 49.1192C36.4358 49.1192 36.3906 48.9837 36.3906 48.7127C36.3906 48.4417 36.4358 48.3062 36.5261 48.3062C37.7456 48.3062 38.649 48.1933 39.2362 47.9675C39.8685 47.6965 40.2976 47.2448 40.5234 46.6125C40.7493 45.935 40.8622 44.9413 40.8622 43.6314V30.9621C40.8622 29.336 40.6815 28.1617 40.3202 27.439C40.004 26.7164 39.4394 26.355 38.6264 26.355C37.8134 26.355 36.7971 26.6712 35.5776 27.3035H35.5099C35.3292 27.3035 35.1937 27.1906 35.1034 26.9648C35.013 26.7389 35.0356 26.5808 35.1711 26.4905L43.9787 22.4255L44.2497 22.3577C44.34 22.3577 44.453 22.4255 44.5885 22.561C44.724 22.6513 44.7917 22.7642 44.7917 22.8997C44.7917 23.2159 44.7691 24.1192 44.724 25.6098C44.6788 27.1003 44.6562 28.8618 44.6562 30.8943V43.6314C44.6562 44.9865 44.7691 45.9801 44.995 46.6125C45.2208 47.2448 45.6273 47.6965 46.2145 47.9675C46.8017 48.1933 47.705 48.3062 48.9245 48.3062C49.06 48.3062 49.1278 48.4417 49.1278 48.7127C49.1278 48.9837 49.06 49.1192 48.9245 49.1192C47.8857 49.1192 47.0501 49.0967 46.4177 49.0515L42.7592 48.9837L39.1007 49.0515C38.4683 49.0967 37.6101 49.1192 36.5261 49.1192Z" fill="white"/>
<path d="M58.1682 49.8645C57.2649 49.8645 56.5422 49.5935 56.0002 49.0515C55.4582 48.5095 55.1872 47.7868 55.1872 46.8835C55.1872 46.0253 55.4582 45.3478 56.0002 44.8509C56.5422 44.3541 57.2649 44.1057 58.1682 44.1057C59.1167 44.1057 59.8394 44.3541 60.3363 44.8509C60.8783 45.3478 61.1493 46.0253 61.1493 46.8835C61.1493 47.7868 60.8783 48.5095 60.3363 49.0515C59.8394 49.5935 59.1167 49.8645 58.1682 49.8645Z" fill="white"/>
</svg>
