<?xml version="1.0" encoding="UTF-8"?>
<svg id="Layer_1" data-name="Layer 1" xmlns="http://www.w3.org/2000/svg" viewBox="0 0 267.42 218.39">
  <defs>
    <style>
      .cls-1 {
        fill: #fff;
        stroke-width: 0px;
      }
    </style>
  </defs>
  <path class="cls-1" d="M129.56,81.09c-1.37,0-2.66,0-3.95,0-5.04,0-10.09-.12-15.12.02-3.94.11-7.68,1.17-10.97,3.48-2.37,1.66-3.98,3.88-4.84,6.65-.64,2.05-1.05,4.13-1.09,6.27-.04,1.6.23,3.16.67,4.69.66,2.3,1.35,4.58,2.07,6.86,1.01,3.22,1.33,6.48.64,9.8-.62,3-1.99,5.64-4,7.93-.41.47-.52.84-.32,1.45,2.45,7.4,4.88,14.82,7.31,22.23.79,2.41,1.58,4.81,2.36,7.22.08.24.13.48.21.78h-7.77c-3.67-11.16-7.34-22.33-11.02-33.55.66-.49,1.28-.94,1.9-1.41,3.34-2.52,4.69-5.87,4.08-10-.14-.93-.4-1.86-.7-2.75-.89-2.71-1.71-5.43-2.33-8.22-.74-3.29-.69-6.58-.02-9.86.29-1.41.72-2.78,1.09-4.17.05-.19.1-.37.16-.63-1.34.13-2.56.44-3.74.86-8.77,3.18-14.15,9.32-15.88,18.52-.8,4.28-.24,8.49,1.39,12.54.65,1.6,1.26,3.21,1.59,4.92.93,4.78-.97,9.24-4.99,11.57-2.68,1.55-5.51,1.92-8.48,1-.21-.07-.42-.17-.72-.29.91-2.28,1.81-4.51,2.71-6.78.13,0,.24-.02.35,0,2.28.45,4.19-1.23,3.89-3.53-.13-1.01-.45-2.03-.82-2.98-1-2.55-1.87-5.13-2.29-7.86-1.02-6.68-.08-13.06,3.09-19.02,4.76-8.96,12.26-14.31,22.19-16.25,1.84-.36,3.71-.47,5.59-.41.39.01.7-.07,1.01-.35,3.06-2.79,6.72-4.4,10.7-5.33,2.62-.61,5.27-.93,7.96-.9,3.63.03,7.26.04,10.89.06.17,0,.34,0,.59,0,.2-.44.42-.87.6-1.31,1.36-3.43,2.34-6.99,3.28-10.55,2.21-8.32,3.99-16.74,5.75-25.17,1.73-8.3,6.89-13.52,14.98-15.9,1.74-.51,3.54-.81,5.35-.88.48-.02.8-.21,1.12-.53,2.14-2.14,4.29-4.26,6.43-6.41.22-.22.36-.52.57-.82,3.42,3.01,6.66,5.86,9.97,8.76-1.56,1.9-3.09,3.77-4.7,5.72-1.66-1.32-3.29-2.63-4.97-3.97-.59.59-1.16,1.16-1.73,1.73-.77.77-1.58,1.52-2.31,2.33-.46.52-.95.64-1.6.59-2.03-.18-4.03.06-5.99.59-3.34.9-6.11,2.64-8.01,5.62-.88,1.38-1.43,2.88-1.81,4.46-1.53,6.47-3.07,12.94-4.61,19.4-1.83,7.64-3.66,15.28-5.5,22.92-.06.25-.14.5-.23.83Z"/>
  <path class="cls-1" d="M195.93,0c.6.49,1.15.94,1.8,1.46-5.3,9.14-10.6,18.27-15.94,27.47.21.22.41.45.63.66.8.78,1.6,1.58,2.43,2.33.21.19.53.34.82.38,4.56.54,7.96,3.78,8.54,8.31.67,5.21-2.93,9.74-7.81,10.57-2.09.36-4.06.04-5.97-.86-.3-.14-.66-.24-.98-.22-2.87.23-5.74.5-8.6.76-.14.01-.27.07-.47.12.1.47.18.92.28,1.36,1.71,7.31,3.42,14.63,5.12,21.94.11.46.29.85.6,1.21,3.44,3.98,5.25,8.61,5.47,13.86,0,.17.03.33.06.6h24.62c-.09.39-.14.66-.22.93-2.76,9.45-5.51,18.9-8.29,28.34-1.76,5.95-5.56,10.17-11.08,12.91-.15.07-.32.12-.55.21-1.26-2.11-2.5-4.2-3.79-6.35.25-.13.44-.23.64-.32,3.89-1.76,6.53-4.61,7.73-8.76,1.79-6.22,3.62-12.43,5.43-18.65.07-.24.13-.49.18-.69-.04-.09-.05-.12-.06-.14-.02-.02-.05-.03-.08-.04-.06-.01-.11-.03-.17-.03-.12,0-.23,0-.35,0-7.29,0-14.58,0-21.87,0-.06,0-.11,0-.17-.02-.03,0-.05-.02-.2-.08.08-.71.19-1.47.26-2.22.16-1.72.46-3.44.44-5.16-.03-4.11-1.63-7.61-4.57-10.47-.39-.37-.66-.76-.78-1.29-2.55-10.96-5.11-21.92-7.66-32.88-.06-.27-.11-.55-.18-.91.6-.07,1.13-.14,1.67-.19,2.81-.26,5.62-.51,8.43-.77,3.38-.31,6.77-.62,10.14-.96.53-.05.95.02,1.32.42.25.27.55.51.86.72.78.52,1.69.47,2.42-.09.68-.52.98-1.43.73-2.24-.27-.87-.99-1.43-1.92-1.48-.23-.01-.47-.02-.69.02-.82.16-1.45-.11-2.11-.64-3.4-2.76-6.84-5.46-10.27-8.19-.22-.18-.44-.37-.73-.62,8.3-10.1,16.57-20.17,24.9-30.3Z"/>
  <path class="cls-1" d="M128.78,158.49h-7.92c-.13-.3-.26-.58-.37-.87-3.22-8.32-6.44-16.64-9.67-24.96-.23-.58-.23-1.04.1-1.61,5.2-9.1,10.37-18.22,15.55-27.33.16-.27.32-.54.53-.89.45.2.9.39,1.33.6,3.87,1.9,8,2.87,12.25,3.43,6.23.82,12.35.2,18.38-1.46.61-.17,1.23-.3,1.95-.47.02.35.04.65.04.95,0,2.07.02,4.15,0,6.22,0,.63.13,1.17.46,1.71,3.92,6.55,7.82,13.11,11.72,19.67,4.82,8.09,9.63,16.19,14.45,24.28.12.19.22.4.36.67-.21.04-.36.09-.51.09-2.48,0-4.96-.02-7.43.02-.59,0-.8-.31-1.04-.72-3.74-6.29-7.48-12.57-11.22-18.86-4.55-7.65-9.1-15.29-13.66-22.94-.33-.55-.64-1.09-.54-1.87-7.92,1.07-15.65.44-23.25-1.93-.11.16-.22.3-.31.44-3.62,6.36-7.22,12.72-10.85,19.07-.29.51-.29.92-.08,1.44,3.17,8.16,6.33,16.32,9.49,24.48.09.24.16.48.29.83Z"/>
  <path class="cls-1" d="M0,218.34v-35.59c.23-.03.45-.08.66-.08,5.76,0,11.52-.06,17.28,0,8.63.1,15.74,6.03,17.35,14.5,1.93,10.17-4.98,19.26-14.41,20.85-1.13.19-2.29.29-3.43.29-5.44.03-10.89.01-16.33.01H0ZM7.96,210.39h1c2.71,0,5.41,0,8.12,0,.72,0,1.44-.05,2.15-.13,5.28-.66,9.22-5.99,8.32-11.23-.86-4.96-4.83-8.34-9.91-8.39-2.96-.03-5.93,0-8.89,0-.25,0-.5.04-.78.06v19.7Z"/>
  <path class="cls-1" d="M231.05,207.31h7.8c.29,1.13,1.14,1.71,2.09,2.18,1.36.66,2.82,1.02,4.3,1.21,3.4.43,6.78.42,10.12-.46.8-.21,1.58-.54,2.33-.89.43-.2.84-.51,1.19-.85.83-.81.8-1.82-.11-2.54-.49-.38-1.07-.67-1.66-.89-1.79-.67-3.68-.92-5.56-1.2-3.47-.52-6.96-.91-10.38-1.74-2.19-.53-4.33-1.21-6.26-2.41-2.14-1.33-3.58-3.13-3.86-5.72-.31-2.94.86-5.28,2.96-7.22,1.65-1.53,3.62-2.55,5.73-3.29,3.55-1.25,7.23-1.62,10.97-1.46,2.69.12,5.32.55,7.87,1.44,2.39.84,4.59,2.01,6.36,3.87,1.24,1.3,2.1,2.81,2.37,4.61.05.34.06.68.11,1.14-2.67.07-5.27.02-7.88.03-.2-.94-.8-1.5-1.54-1.94-1.28-.76-2.7-1.15-4.15-1.39-3.47-.57-6.93-.57-10.37.25-1.01.24-1.98.61-2.84,1.21-1.71,1.21-1.59,2.64.31,3.52,1.37.64,2.85.89,4.33,1.13,3.24.53,6.49.99,9.72,1.57,2.55.46,5.06,1.12,7.37,2.37.83.45,1.65.97,2.36,1.58,2.91,2.5,3.54,6.56,1.57,9.87-1.08,1.81-2.64,3.1-4.44,4.14-2.32,1.34-4.85,2.13-7.48,2.55-4.7.75-9.36.56-13.93-.86-2.42-.75-4.65-1.86-6.52-3.61-1.56-1.46-2.63-3.19-2.87-5.36-.03-.27,0-.54,0-.82Z"/>
  <path class="cls-1" d="M102.8,182.38v7.95h-1.06c-5.56,0-11.12.06-16.68-.02-5.08-.07-10.03,4.19-9.9,10.14.09,4.3,3.25,8.15,7.64,9.24.88.22,1.82.32,2.73.34,2.76.04,5.53.02,8.29.02h1.02c.1-2.01.03-3.96.04-5.91.01-1.95,0-3.9,0-5.91h7.82c.17.63.22,18.58.05,19.72-.24.02-.49.05-.74.05-5.82,0-11.64.09-17.45-.02-8.22-.15-14.94-5.87-16.83-13.44-2.32-9.3,3.07-18.61,12.34-21.39,1.69-.51,3.42-.78,5.19-.77,5.47.02,10.94,0,16.42,0h1.1Z"/>
  <path class="cls-1" d="M178.83,217.96c7.3-12.52,14.53-24.9,21.73-37.26.08,0,.11,0,.14,0,.03,0,.06,0,.07.03.19.29.39.57.57.86,7.28,12.05,14.56,24.1,21.84,36.15.02.04,0,.11-.01.21h-9.12c-.18-.28-.4-.61-.6-.95-.69-1.13-1.39-2.25-2.05-3.41-.25-.44-.56-.57-1.04-.56-2.16.02-4.32,0-6.48,0-4.03,0-8.06.01-12.1-.01-.62,0-.99.16-1.3.73-.63,1.19-1.35,2.35-2.03,3.51-.14.25-.3.48-.43.7h-9.2ZM200.8,196.1c-1.98,3.39-3.86,6.62-5.79,9.94h11.81c-2.02-3.33-3.97-6.57-6.01-9.94Z"/>
  <path class="cls-1" d="M162.21,217.95h-7.93v-27.6h-13.84v-7.83c.61-.19,33.5-.28,35.45-.09.19.6.24,6.77.04,7.88h-13.71c0,2.38,0,4.67,0,6.96,0,2.31,0,4.61,0,6.92v13.76Z"/>
  <path class="cls-1" d="M55.26,218.3h-7.78v-35.57h7.75c.18.6.23,34.61.03,35.57Z"/>
  <path class="cls-1" d="M128.52,217.95h-7.83v-35.52h7.83v35.52Z"/>
</svg>