<svg width="63" height="63" viewBox="0 0 63 63" fill="none" xmlns="http://www.w3.org/2000/svg">
<circle cx="31.4297" cy="31.4297" r="31.4297" fill="#0A042C"/>
<path d="M13.98 36.2C13.22 36.2 12.5267 36.02 11.9 35.66C11.2867 35.2867 10.8 34.7667 10.44 34.1C10.08 33.42 9.9 32.64 9.9 31.76C9.9 30.84 10.0867 30.0533 10.46 29.4C10.8467 28.7467 11.3667 28.2467 12.02 27.9C12.6733 27.5533 13.4067 27.38 14.22 27.38C14.8733 27.38 15.4933 27.52 16.08 27.8C16.68 28.08 17.1467 28.4667 17.48 28.96L17.4 29.62V20.52H19.24V36H17.38V33.94L17.58 34.46C17.1933 34.9667 16.6933 35.3867 16.08 35.72C15.4667 36.04 14.7667 36.2 13.98 36.2ZM14.56 34.62C15.0533 34.62 15.4933 34.5333 15.88 34.36C16.2667 34.1733 16.5867 33.92 16.84 33.6C17.0933 33.28 17.2733 32.9 17.38 32.46V30.9C17.2733 30.5 17.08 30.1533 16.8 29.86C16.5333 29.5533 16.2067 29.3133 15.82 29.14C15.4467 28.9533 15.0267 28.86 14.56 28.86C14.0533 28.86 13.5867 28.9867 13.16 29.24C12.7467 29.48 12.4133 29.8133 12.16 30.24C11.9067 30.6667 11.78 31.16 11.78 31.72C11.78 32.2667 11.9067 32.76 12.16 33.2C12.4133 33.6267 12.7533 33.9733 13.18 34.24C13.6067 34.4933 14.0667 34.62 14.56 34.62ZM24.5355 27.72L24.7155 30.12L24.6155 29.8C24.8288 29.2933 25.1355 28.8667 25.5355 28.52C25.9488 28.16 26.3755 27.8867 26.8155 27.7C27.2688 27.5 27.6621 27.4 27.9955 27.4L27.8955 29.24C27.2688 29.2 26.7155 29.32 26.2355 29.6C25.7688 29.88 25.3955 30.2533 25.1155 30.72C24.8488 31.1867 24.7155 31.6867 24.7155 32.22V36H22.8755V27.72H24.5355ZM34.0397 36.2C33.2664 36.2 32.5597 36.0333 31.9197 35.7C31.293 35.3667 30.793 34.88 30.4197 34.24C30.0597 33.5867 29.8797 32.7933 29.8797 31.86C29.8797 30.94 30.073 30.1467 30.4597 29.48C30.8464 28.8 31.3597 28.28 31.9997 27.92C32.653 27.56 33.3664 27.38 34.1397 27.38C34.913 27.38 35.5664 27.56 36.0997 27.92C36.633 28.2667 37.0397 28.68 37.3197 29.16L37.1997 29.48L37.3797 27.72H39.0997V36H37.2397V33.84L37.4397 34.32C37.3864 34.4533 37.2664 34.6267 37.0797 34.84C36.9064 35.04 36.6664 35.2467 36.3597 35.46C36.0664 35.6733 35.7264 35.8533 35.3397 36C34.953 36.1333 34.5197 36.2 34.0397 36.2ZM34.5397 34.66C35.0064 34.66 35.4264 34.5733 35.7997 34.4C36.173 34.2267 36.4797 33.9867 36.7197 33.68C36.973 33.36 37.1464 32.98 37.2397 32.54V30.92C37.133 30.52 36.9464 30.1733 36.6797 29.88C36.413 29.5733 36.093 29.34 35.7197 29.18C35.3464 29.0067 34.933 28.92 34.4797 28.92C33.9864 28.92 33.533 29.04 33.1197 29.28C32.7064 29.52 32.373 29.8533 32.1197 30.28C31.8797 30.7067 31.7597 31.2067 31.7597 31.78C31.7597 32.3133 31.8864 32.8 32.1397 33.24C32.393 33.68 32.733 34.0267 33.1597 34.28C33.5864 34.5333 34.0464 34.66 34.5397 34.66ZM46.6984 40.1C46.0851 40.1 45.5451 40.0267 45.0784 39.88C44.6118 39.7467 44.1851 39.5533 43.7984 39.3C43.4251 39.0467 43.0651 38.76 42.7184 38.44L43.7984 37.18C44.2384 37.5933 44.6851 37.9133 45.1384 38.14C45.5918 38.3667 46.0984 38.48 46.6584 38.48C47.2851 38.48 47.8118 38.3733 48.2384 38.16C48.6784 37.96 49.0118 37.6733 49.2384 37.3C49.4651 36.94 49.5784 36.52 49.5784 36.04L49.5984 33.8L49.7584 34.16C49.5184 34.7333 49.0851 35.22 48.4584 35.62C47.8318 36.0067 47.0718 36.2 46.1784 36.2C45.4184 36.2 44.7184 36.0067 44.0784 35.62C43.4518 35.2333 42.9451 34.7133 42.5584 34.06C42.1851 33.3933 41.9984 32.6467 41.9984 31.82C41.9984 30.9533 42.1984 30.1933 42.5984 29.54C42.9984 28.8733 43.5251 28.3467 44.1784 27.96C44.8318 27.5733 45.5451 27.38 46.3184 27.38C47.0518 27.38 47.7184 27.5333 48.3184 27.84C48.9318 28.1333 49.3784 28.5133 49.6584 28.98L49.5584 29.32L49.7584 27.72H51.4584V36.06C51.4584 36.8067 51.2651 37.4867 50.8784 38.1C50.4918 38.7133 49.9451 39.2 49.2384 39.56C48.5318 39.92 47.6851 40.1 46.6984 40.1ZM43.8584 31.78C43.8584 32.3133 43.9851 32.8 44.2384 33.24C44.4918 33.68 44.8318 34.0267 45.2584 34.28C45.6984 34.5333 46.1851 34.66 46.7184 34.66C47.2118 34.66 47.6518 34.5733 48.0384 34.4C48.4384 34.2133 48.7718 33.9667 49.0384 33.66C49.3051 33.34 49.4918 32.9733 49.5984 32.56V30.92C49.4784 30.52 49.2784 30.1733 48.9984 29.88C48.7184 29.5733 48.3851 29.34 47.9984 29.18C47.6118 29.0067 47.1851 28.92 46.7184 28.92C46.1851 28.92 45.6984 29.04 45.2584 29.28C44.8318 29.52 44.4918 29.86 44.2384 30.3C43.9851 30.7267 43.8584 31.22 43.8584 31.78Z" fill="white"/>
</svg>
