<?xml version="1.0" encoding="UTF-8"?>
<svg id="Layer_1" data-name="Layer 1" xmlns="http://www.w3.org/2000/svg" viewBox="0 0 727.25 685.66">
  <defs>
    <style>
      .cls-1 {
        fill: #fff;
        stroke-width: 0px;
      }
    </style>
  </defs>
  <path class="cls-1" d="M0,370.03c.81-45.34,5.67-80.33,11.35-115.2C24.46,174.26,37.83,93.73,51.1,13.17c.19-1.15.32-2.31.58-3.45,1.2-5.28,4.79-6.77,9.17-3.53,6.96,5.16,13.76,10.54,20.62,15.83,20.46,15.78,40.95,31.5,61.32,47.39,2.67,2.08,4.4,2.32,7.29.23C220.58,18.8,299.39-4.32,386.08.66c70.14,4.03,133.76,27.24,190.7,68.44,3.59,2.6,5.67,2.21,8.91-.31,26.3-20.48,52.73-40.78,79.14-61.13,6.96-5.36,10.12-4.13,11.55,4.55,13.83,83.83,27.85,167.63,41.36,251.52,5.3,32.9,10.3,65.98,9.41,99.4-.53,19.93-3.23,39.81-5.32,59.67-.78,7.45-6,11.22-14.49,11.59-34.67,1.52-68.56,7.55-101.49,18.37-69.31,22.77-128.3,60.79-173.21,119.07-23.71,30.77-40.35,65.04-48.84,103.06-1.13,5.08-3.87,7.95-8.61,9.22-7.73,2.07-15.51,2.1-23.2-.17-3.84-1.13-6.77-3.26-7.75-7.62-13.75-60.95-46.36-110.47-92.95-151.07-54.87-47.81-119.06-75.75-190.73-86.78-13.47-2.07-27.15-2.89-40.75-4.06-8.5-.73-13.05-4.11-14.09-12.64-2.5-20.48-4.55-41.01-5.71-51.76ZM42.75,260.68c3.58.46,6.35.81,9.13,1.17,65.59,8.61,122.63,36.1,172.44,78.97,57.57,49.54,97.08,111.43,122.94,182.43.58,1.61,1.26,3.18,1.9,4.77.87-1.26.98-2.24.98-3.21,0-85.84-.03-171.68.07-257.51,0-3.62-1.34-5.72-4.07-7.81-59.69-45.94-119.32-91.96-178.97-137.96-6.71-5.17-13.43-10.32-20.43-15.7-49.01,41.95-83.6,93.1-103.98,154.86ZM169.02,89.3c1.3,1.09,2.52,2.18,3.81,3.18,62.27,48.04,124.57,96.05,186.77,144.2,3.27,2.53,5.2,2.51,8.45,0,62.33-48.24,124.77-96.35,187.17-144.49,1.23-.95,2.37-2,3.66-3.09C435.93,0,272.72,11.26,169.02,89.3ZM377.9,369.48c1.15.18,1.63.32,2.12.32,30,.02,60,.09,90-.06,1.85,0,4.04-1.31,5.48-2.65,5.97-5.57,11.54-11.57,17.55-17.08,49.98-45.83,107.57-76.42,175.06-87.04,5.35-.84,10.73-1.52,16.48-2.33-.57-2.02-.91-3.45-1.38-4.83-19.79-57.95-52.98-106.88-98.99-147.2-2.41-2.11-4-2.38-6.7-.29-65.39,50.57-130.85,101.06-196.37,151.46-2.72,2.09-3.59,4.28-3.58,7.55.1,32.34.05,64.68.07,97.02,0,1.63.16,3.25.26,5.14ZM389.18,583.37c.62.18,1.24.36,1.86.53.72-1.09,1.49-2.15,2.17-3.26,18.82-31.28,42.41-58.52,70.47-81.79,66.03-54.76,142.51-83.42,227.59-90.03,4.97-.39,6.28-2.05,6.88-6.58,3.25-24.57,3.91-49.17.92-73.77-1.68-13.84-4.17-27.59-6.37-41.87-6.85.86-12.94,1.47-18.99,2.4-57.41,8.79-107.43,33.52-151.36,70.95-52.67,44.88-89.63,100.83-114.09,165.17-7.25,19.07-12.76,38.81-19.07,58.24ZM337.23,582.78s-.08-.97-.32-1.92c-17.42-70.09-48.31-133.28-96.9-187.14-44.01-48.77-96.74-83.88-161.16-99.69-14.13-3.47-28.63-5.4-43.07-8.05-.53,1.97-.77,2.75-.94,3.54-8.06,37.8-10.7,75.83-5.09,114.25.51,3.53,1.66,4.64,5.21,4.88,23.98,1.6,47.71,5.08,71.02,10.99,76.93,19.49,143.53,56.57,196.07,116.81,12.85,14.74,23.76,31.17,35.18,46.32ZM377.95,527.59c17.57-47.65,41.23-91.73,73.04-132.32h-73.04v132.32ZM54.56,170.44c20.23-30.03,43.42-57.05,70.82-81.12-17.71-13.66-34.86-26.89-52.76-40.69-6.14,41.39-12.1,81.6-18.06,121.81ZM655.03,48.64c-17.94,13.83-35.1,27.07-52.74,40.68,27.47,24.11,50.58,51.16,70.82,81.01-5.97-40.21-11.95-80.43-18.08-121.69Z"/>
  <path class="cls-1" d="M271.72,256.54c-1.23,1.94-2.03,3.8-3.34,5.15-5.19,5.38-10.47,10.67-15.84,15.88-3.81,3.7-6.61,3.73-10.34.12-5.37-5.2-10.64-10.5-15.86-15.86-3.84-3.94-3.81-6.73.06-10.68,5.11-5.23,10.28-10.4,15.51-15.51,4.07-3.98,6.64-4.04,10.65-.14,5.36,5.21,10.65,10.49,15.84,15.88,1.31,1.36,2.09,3.21,3.32,5.16Z"/>
  <path class="cls-1" d="M477.03,268.5c-14.15,0-28.29.01-42.44,0-7.35,0-8.6-1.3-8.63-8.81-.01-2.83-.03-5.66,0-8.49.07-6.35,1.56-7.83,8.09-7.84,21.64-.02,43.27,0,64.91,0,7.49,0,14.98-.03,22.47,0,6.32.03,7.85,1.62,7.9,8.05.02,2.83.01,5.66,0,8.49-.03,7.27-1.37,8.59-8.86,8.6-14.48.01-28.96,0-43.44,0Z"/>
</svg>