<svg width="141" height="36" viewBox="0 0 141 36" fill="none" xmlns="http://www.w3.org/2000/svg">
<path d="M65.6758 19.0965L58.8561 35.1501L58.7079 35.1501L51.8883 19.0965L54.7262 19.0965L59.5339 31.2744L57.7548 32.4816L63.2402 19.0965L65.6758 19.0965Z" fill="#0A042C"/>
<path d="M75.6196 34.6843L70.7696 22.6123L72.1886 22.8876L67.6775 34.6843L64.7548 34.6843L71.6591 18.5459L78.5635 34.6843L75.6196 34.6843Z" fill="#0A042C"/>
<path d="M95.3076 26.954C95.3076 28.0271 95.1029 29.0366 94.6934 29.9826C94.284 30.9286 93.7192 31.7687 92.9991 32.5029C92.279 33.2371 91.446 33.8089 90.5 34.2184C89.5399 34.642 88.5162 34.8538 87.429 34.8538C86.356 34.8538 85.3464 34.642 84.4004 34.2184C83.4403 33.8089 82.6002 33.2371 81.8801 32.5029C81.1459 31.7687 80.5741 30.9286 80.1646 29.9826C79.7411 29.0366 79.5293 28.0271 79.5293 26.954C79.5293 25.8668 79.7411 24.8502 80.1646 23.9042C80.5741 22.9582 81.1459 22.1181 81.8801 21.3839C82.6002 20.6638 83.4403 20.0991 84.4004 19.6896C85.3464 19.2943 86.356 19.0966 87.429 19.0966C88.5303 19.0966 89.554 19.2943 90.5 19.6896C91.446 20.0991 92.279 20.6568 92.9991 21.3627C93.7192 22.0828 94.284 22.9159 94.6934 23.8619C95.1029 24.822 95.3076 25.8527 95.3076 26.954ZM92.7661 26.954C92.7661 26.1916 92.632 25.4785 92.3637 24.8149C92.0814 24.1513 91.6931 23.5654 91.1989 23.0571C90.7047 22.5629 90.1329 22.1746 89.4834 21.8922C88.8339 21.6098 88.1279 21.4686 87.3655 21.4686C86.6313 21.4686 85.9465 21.6098 85.3111 21.8922C84.6616 22.1746 84.0969 22.5629 83.6168 23.0571C83.1368 23.5654 82.7626 24.1513 82.4943 24.8149C82.2119 25.4785 82.0708 26.1916 82.0708 26.954C82.0708 27.7306 82.2119 28.4506 82.4943 29.1143C82.7767 29.7779 83.1579 30.3638 83.638 30.8721C84.1181 31.3804 84.6828 31.7757 85.3323 32.0581C85.9818 32.3405 86.6807 32.4817 87.429 32.4817C88.1774 32.4817 88.8763 32.3405 89.5258 32.0581C90.1752 31.7757 90.7471 31.3804 91.2413 30.8721C91.7213 30.3638 92.0955 29.7708 92.3637 29.0931C92.632 28.4295 92.7661 27.7164 92.7661 26.954Z" fill="#0A042C"/>
<path d="M98.6701 18.7152L110.509 30.1942L109.789 29.8977L109.725 19.2658L112.225 19.2658L112.225 35.2136L112.119 35.2136L100.449 23.7346L101.021 23.904L101.063 34.6841L98.6065 34.6841L98.6065 18.7152L98.6701 18.7152Z" fill="#0A042C"/>
<path d="M119.153 34.6206L116.506 34.6206L116.506 24.0311L119.153 24.0311L119.153 34.6206Z" fill="#0A042C"/>
<path d="M127.626 34.6843L125.148 34.6843L125.148 21.6381L116.507 21.6381L116.507 19.266L127.626 19.266L127.626 34.6843Z" fill="#0A042C"/>
<path d="M136.648 34.6843C135.08 34.6843 133.845 34.3666 132.941 33.7313C132.024 33.0959 131.565 32.1217 131.565 30.8086C131.565 29.9332 131.769 29.1848 132.179 28.5636C132.574 27.9565 133.132 27.4835 133.852 27.1446C134.572 26.8199 135.412 26.6434 136.372 26.6151L136.754 27.9282C135.61 27.9141 134.593 27.7306 133.704 27.3776C132.814 27.0387 132.108 26.5516 131.586 25.9162C131.063 25.295 130.802 24.5537 130.802 23.6924C130.802 22.8876 130.951 22.2028 131.247 21.6381C131.544 21.0874 131.939 20.6356 132.433 20.2826C132.927 19.9296 133.485 19.6684 134.106 19.499C134.727 19.3437 135.377 19.266 136.055 19.266L140.862 19.266L140.862 34.6843L136.648 34.6843ZM136.245 28.1188C135.511 28.1188 134.975 28.3306 134.636 28.7542C134.283 29.1919 134.106 29.7002 134.106 30.2791C134.106 30.9851 134.325 31.5004 134.763 31.8252C135.2 32.1499 135.793 32.3123 136.542 32.3123L138.384 32.3123L138.384 28.1188L136.245 28.1188ZM136.161 21.5534C135.638 21.5534 135.165 21.624 134.742 21.7651C134.318 21.9205 133.986 22.1534 133.746 22.4641C133.492 22.7888 133.365 23.1912 133.365 23.6713C133.365 24.2078 133.513 24.6243 133.81 24.9208C134.092 25.2173 134.459 25.4291 134.911 25.5562C135.363 25.6833 135.836 25.7468 136.33 25.7468L138.384 25.7468L138.384 21.5534L136.161 21.5534Z" fill="#0A042C"/>
<path d="M52.0576 16.0676L58.8773 0.013916H59.0255L65.8451 16.0676H63.0072L58.1995 3.88967L59.9786 2.68247L54.4932 16.0676H52.0576Z" fill="#0A042C"/>
<path d="M45.7051 4.94897H48.3525V16.0679H45.7051V4.94897Z" fill="#0A042C"/>
<path d="M31.6729 0.649414H48.3513V3.02146H34.1508V7.36315H40.1444V9.7352H34.1508V16.0677H31.6729V0.649414Z" fill="#0A042C"/>
<path d="M12.6016 8.37999C12.6016 7.30692 12.8063 6.29739 13.2158 5.35139C13.6252 4.4054 14.19 3.5653 14.9101 2.83109C15.6302 2.09689 16.4632 1.52505 17.4092 1.11559C18.3693 0.692015 19.393 0.480225 20.4801 0.480225C21.5532 0.480225 22.5627 0.692015 23.5087 1.11559C24.4689 1.52505 25.309 2.09689 26.029 2.83109C26.7632 3.5653 27.3351 4.4054 27.7445 5.35139C28.1681 6.29739 28.3799 7.30692 28.3799 8.37999C28.3799 9.46717 28.1681 10.4838 27.7445 11.4298C27.3351 12.3758 26.7632 13.2159 26.029 13.9501C25.309 14.6701 24.4689 15.2349 23.5087 15.6444C22.5627 16.0397 21.5532 16.2374 20.4801 16.2374C19.3788 16.2374 18.3552 16.0397 17.4092 15.6444C16.4632 15.2349 15.6302 14.6772 14.9101 13.9712C14.19 13.2512 13.6252 12.4181 13.2158 11.4721C12.8063 10.512 12.6016 9.48129 12.6016 8.37999ZM15.143 8.37999C15.143 9.14243 15.2772 9.85546 15.5454 10.5191C15.8278 11.1827 16.2161 11.7686 16.7103 12.2769C17.2045 12.7711 17.7763 13.1594 18.4258 13.4418C19.0753 13.7242 19.7812 13.8653 20.5437 13.8653C21.2779 13.8653 21.9627 13.7242 22.598 13.4418C23.2475 13.1594 23.8123 12.7711 24.2924 12.2769C24.7724 11.7686 25.1466 11.1827 25.4148 10.5191C25.6972 9.85546 25.8384 9.14243 25.8384 8.37999C25.8384 7.60342 25.6972 6.88334 25.4148 6.21973C25.1325 5.55612 24.7512 4.97017 24.2712 4.46187C23.7911 3.95358 23.2264 3.55824 22.5769 3.27585C21.9274 2.99346 21.2285 2.85227 20.4801 2.85227C19.7318 2.85227 19.0329 2.99346 18.3834 3.27585C17.7339 3.55824 17.1621 3.95358 16.6679 4.46187C16.1879 4.97017 15.8137 5.56318 15.5454 6.24091C15.2772 6.90452 15.143 7.61754 15.143 8.37999Z" fill="#0A042C"/>
<path d="M9.31875 3.7839C8.7681 3.50152 8.18215 3.26149 7.5609 3.06382C6.93965 2.85203 6.34664 2.74613 5.78186 2.74613C5.01942 2.74613 4.41229 2.91557 3.96047 3.25443C3.52277 3.59329 3.30392 4.05923 3.30392 4.65224C3.30392 5.07582 3.45923 5.44998 3.76986 5.77473C4.08048 6.08535 4.47583 6.36068 4.95588 6.60071C5.43594 6.82662 5.94423 7.04547 6.48077 7.25726C6.94671 7.42669 7.40558 7.63142 7.8574 7.87145C8.32334 8.09736 8.73986 8.37974 9.10696 8.71861C9.47406 9.05747 9.76351 9.48105 9.9753 9.98935C10.2012 10.4835 10.3142 11.0977 10.3142 11.8319C10.3142 12.6367 10.1094 13.378 9.69997 14.0557C9.29051 14.7193 8.70456 15.2488 7.94212 15.6441C7.17967 16.0395 6.2478 16.2371 5.14649 16.2371C4.51112 16.2371 3.88281 16.1665 3.26156 16.0254C2.65443 15.8842 2.07554 15.6936 1.52489 15.4535C0.974233 15.1994 0.465938 14.917 0 14.6064L1.10131 12.6791C1.44017 12.9332 1.82845 13.1662 2.26615 13.378C2.70385 13.5898 3.15567 13.7592 3.62161 13.8863C4.08754 13.9992 4.52524 14.0557 4.9347 14.0557C5.3724 14.0557 5.80304 13.9851 6.22662 13.8439C6.66432 13.7027 7.02436 13.4698 7.30675 13.145C7.60326 12.8203 7.75151 12.3896 7.75151 11.8531C7.75151 11.4154 7.62443 11.0412 7.37029 10.7306C7.11614 10.42 6.78433 10.1517 6.37487 9.92581C5.97953 9.68578 5.54183 9.47399 5.06178 9.29044C4.58172 9.10689 4.08754 8.90216 3.57925 8.67625C3.08507 8.45034 2.62619 8.17501 2.20261 7.85027C1.77903 7.5114 1.43311 7.10194 1.16484 6.62189C0.896577 6.14183 0.762443 5.54882 0.762443 4.84285C0.762443 3.99569 0.960114 3.26149 1.35545 2.64024C1.7508 2.01899 2.29439 1.52481 2.98624 1.15771C3.6922 0.790607 4.50406 0.592936 5.42182 0.564697C6.50901 0.564697 7.43382 0.698831 8.19627 0.967098C8.97283 1.22125 9.65762 1.53187 10.2506 1.89897L9.31875 3.7839Z" fill="#0A042C"/>
</svg>
