<?xml version="1.0" encoding="UTF-8"?>
<svg id="Layer_1" data-name="Layer 1" xmlns="http://www.w3.org/2000/svg" viewBox="0 0 117.27 194.25">
  <defs>
    <style>
      .cls-1 {
        fill: #fff;
      }
    </style>
  </defs>
  <path class="cls-1" d="M40.15,19.43C36.52-8.16,1.54-5.1,2.03,22.2c.38,21.22,27.34,20.29,29.57,36.61,3.18,23.32-23.81,22.75-22.09,1.56l-9.51,1.12c1.07,15.16,8.41,24.85,23.78,23.22,16.17-1.71,21.9-24.51,13.19-37.06-8.16-11.76-31.72-14.61-24.55-33.46,3.89-10.23,18.94-4.56,18.31,6.24l9.42-1.01Z"/>
  <path class="cls-1" d="M82.41,34.93V.63h-8.45v82.98h8.45v-39.28c0-.5,1.85-2.48,2.61-.53l23.78,40.42c2.84,1.92,5.59-2.6,8.47-2.85l-25.34-42.57L113.03,4.5l-7.41-4.5c-2.52,1.29-17.1,28.6-20.8,33.53-.68.9.04,2.02-2.42,1.4Z"/>
  <path class="cls-1" d="M90.86,160.51c1.7,9.33-1.26,23.81,0,33.75h8.45v-34.85l17.5-45.96-7.98-3.28-14.79,39.83-14.33-39.86-6.81,2.27c-.15.85.06,1.66.2,2.5,2.22,13.16,15.51,33.27,17.75,45.61Z"/>
  <path class="cls-1" d="M0,111.27v82.98h9.51v-60.3c0-.66-1.71-2.26-1.05-3.87l1.59,1.09,20.7,62.96,11.52.11v-82.98h-9.51v63.07l-21.22-61.31c-2.28-3.3-7.99-1.24-11.53-1.75Z"/>
  <path class="cls-1" d="M0,111.27c3.54.51,9.25-1.54,11.53,1.75l21.22,61.31v-63.07h9.51v82.98l-11.52-.11-20.7-62.96-1.59-1.09c-.66,1.61,1.05,3.21,1.05,3.87v60.3H0v-82.98Z"/>
  <path class="cls-1" d="M40.15,19.43l-9.42,1.01c.63-10.8-14.42-16.47-18.31-6.24-7.17,18.85,16.39,21.7,24.55,33.46,8.7,12.55,2.98,35.34-13.19,37.06-15.37,1.63-22.71-8.07-23.78-23.22l9.51-1.12c-1.72,21.19,25.27,21.76,22.09-1.56C29.37,42.49,2.41,43.42,2.03,22.2c-.49-27.3,34.48-30.36,38.12-2.77Z"/>
  <g>
    <path class="cls-1" d="M82.41,34.93c2.46.62,1.74-.5,2.42-1.4,3.7-4.93,18.28-32.24,20.8-33.53l7.41,4.5-21.1,34.3,25.34,42.57c-2.88.25-5.62,4.78-8.47,2.85l-23.78-40.42c-.77-1.96-2.61.02-2.61.53v39.28h-8.45V.63h8.45v34.3Z"/>
    <path class="cls-1" d="M90.86,160.51c-2.24-12.34-15.54-32.45-17.75-45.61-.14-.83-.35-1.65-.2-2.5l6.81-2.27,14.33,39.86,14.79-39.83,7.98,3.28-17.5,45.96v34.85h-8.45c-1.26-9.94,1.7-24.42,0-33.75Z"/>
  </g>
</svg>