<svg width="42" height="42" viewBox="0 0 42 42" fill="none" xmlns="http://www.w3.org/2000/svg">
<path d="M30.2235 1H11.7765C5.82425 1 1 5.82511 1 11.7774V30.2226C1 36.1749 5.82511 41 11.7774 41H30.2226C36.1749 41 41 36.1749 41 30.2226V11.7774C41 5.82511 36.1757 1 30.2235 1Z" stroke="white" stroke-width="1.70228" stroke-miterlimit="10"/>
<path d="M21.0001 30.6559C26.3326 30.6559 30.6554 26.3331 30.6554 21.0006C30.6554 15.6681 26.3326 11.3452 21.0001 11.3452C15.6676 11.3452 11.3447 15.6681 11.3447 21.0006C11.3447 26.3331 15.6676 30.6559 21.0001 30.6559Z" stroke="white" stroke-width="1.70228" stroke-miterlimit="10"/>
<path d="M32.724 11.345C33.8666 11.345 34.7928 10.4188 34.7928 9.27628C34.7928 8.13373 33.8666 7.20752 32.724 7.20752C31.5815 7.20752 30.6553 8.13373 30.6553 9.27628C30.6553 10.4188 31.5815 11.345 32.724 11.345Z" fill="white"/>
</svg>
