<svg width="42" height="42" viewBox="0 0 42 42" fill="none" xmlns="http://www.w3.org/2000/svg">
<path d="M23.5253 19.5483V19.4849L23.4834 19.5494L23.5253 19.5483Z" fill="white"/>
<path d="M12.5455 10.4079C13.254 10.4079 13.8283 9.83359 13.8283 9.1251C13.8283 8.41662 13.254 7.84229 12.5455 7.84229C11.837 7.84229 11.2627 8.41662 11.2627 9.1251C11.2627 9.83359 11.837 10.4079 12.5455 10.4079Z" fill="white"/>
<path d="M12.4834 13.4208V30.3891M32.2695 30.3891V19.5073C32.2697 18.6411 32.0992 17.7834 31.7679 16.9831C31.4365 16.1828 30.9507 15.4557 30.3383 14.8432C29.7259 14.2306 28.9988 13.7448 28.1986 13.4133C27.3984 13.0818 26.5407 12.9111 25.6745 12.9111C24.8083 12.911 23.9505 13.0815 23.1501 13.4129C22.3498 13.7444 21.6226 14.2302 21.01 14.8428C20.3975 15.4553 19.9116 16.1825 19.5802 16.9829C19.2488 17.7832 19.0783 18.641 19.0784 19.5073M19.0784 19.5073V30.3891M19.0784 19.5073V13.4208" stroke="white" stroke-width="1.70228" stroke-linecap="round" stroke-linejoin="round"/>
<path d="M30.2235 1.00049H11.7765C5.82425 1.00049 1 5.8256 1 11.7779V30.2231C1 36.1754 5.82511 41.0005 11.7774 41.0005H30.2226C36.1749 41.0005 41 36.1754 41 30.2231V11.7779C41 5.8256 36.1757 1.00049 30.2235 1.00049Z" stroke="white" stroke-width="1.70228" stroke-miterlimit="10"/>
</svg>
